<svg width="19" height="18" viewBox="0 0 19 18" fill="none" xmlns="http://www.w3.org/2000/svg">
<path d="M15.125 15.75H3.125C2.92609 15.75 2.73532 15.671 2.59467 15.5303C2.45402 15.3897 2.375 15.1989 2.375 15V3C2.375 2.80109 2.45402 2.61032 2.59467 2.46967C2.73532 2.32902 2.92609 2.25 3.125 2.25H15.125C15.3239 2.25 15.5147 2.32902 15.6553 2.46967C15.796 2.61032 15.875 2.80109 15.875 3V15C15.875 15.1989 15.796 15.3897 15.6553 15.5303C15.5147 15.671 15.3239 15.75 15.125 15.75ZM6.875 9C6.875 9.44501 7.00696 9.88002 7.25419 10.25C7.50143 10.62 7.85283 10.9084 8.26396 11.0787C8.6751 11.249 9.1275 11.2936 9.56395 11.2068C10.0004 11.12 10.4013 10.9057 10.716 10.591C11.0307 10.2763 11.245 9.87541 11.3318 9.43895C11.4186 9.0025 11.374 8.5501 11.2037 8.13896C11.0334 7.72783 10.745 7.37643 10.375 7.12919C10.005 6.88196 9.57001 6.75 9.125 6.75C8.52826 6.75 7.95597 6.98705 7.53401 7.40901C7.11205 7.83097 6.875 8.40326 6.875 9Z" stroke="#F5F5F5" strokeWidth="1.125" strokeLinecap="round" strokeLinejoin="round"/>
<path d="M12.8376 5.24976H12.9116" stroke="#F5F5F5" strokeWidth="1.4625" strokeLinecap="round" strokeLinejoin="round"/>
</svg>
