<svg width="19" height="18" viewBox="0 0 19 18" fill="none" xmlns="http://www.w3.org/2000/svg">
<path d="M6.63504 8.20519L7.78254 7.05019L7.48254 6.00019H6.12504C6.12504 6.00019 5.81754 7.90519 8.01504 10.0952C10.2125 12.2852 12.125 12.0002 12.125 12.0002V10.6427L11.075 10.3427L9.92004 11.4902M15.785 10.0952C15.6122 11.1452 15.1935 12.1395 14.5632 12.9969C13.9329 13.8543 13.1088 14.5505 12.1582 15.0288C11.2076 15.507 10.1573 15.7537 9.09319 15.7487C8.02905 15.7438 6.98117 15.4873 6.03504 15.0002L2.37504 15.7502L3.12504 12.0902C2.63555 11.1406 2.37847 10.0883 2.37492 9.02C2.37136 7.95167 2.62145 6.89774 3.1046 5.94489C3.58776 4.99205 4.29018 4.16749 5.15412 3.53902C6.01806 2.91056 7.01884 2.49614 8.07416 2.32984C9.12948 2.16354 10.2092 2.25011 11.2245 2.58243C12.2399 2.91475 13.1619 3.48333 13.9146 4.24142C14.6674 4.99951 15.2295 5.92545 15.5546 6.94311C15.8798 7.96076 15.9588 9.04107 15.785 10.0952V10.0952Z" stroke="#F5F5F5" strokeWidth="1.125" strokeLinecap="round" strokeLinejoin="round"/>
</svg>
