<svg width="79" height="78" viewBox="0 0 79 78" fill="none" xmlns="http://www.w3.org/2000/svg">
<path d="M56.6899 59.13V60.12" stroke="#F5F5F5" strokeWidth="2" strokeMiterlimit="10"/>
<path d="M39.5 1C18.24 1 1 18.01 1 39C1 59.99 18.24 77 39.5 77C60.76 77 78 59.99 78 39C78 18.01 60.76 1 39.5 1ZM39.5 50C33.15 50 28 44.85 28 38.5C28 32.15 33.15 27 39.5 27C45.85 27 51 32.15 51 38.5C51 44.85 45.85 50 39.5 50Z" fill="#F5F5F5" stroke="#2D2D2D" strokeMiterlimit="10"/>
<path d="M38.76 44C41.654 44 44 41.7614 44 39C44 36.2386 41.654 34 38.76 34C35.866 34 33.52 36.2386 33.52 39C33.52 41.7614 35.866 44 38.76 44Z" fill="#2D2D2D"/>
<path d="M38.5 5.49994C41.53 5.48994 50.79 5.85994 59.5 12.4999C70.09 20.5799 72.2 32.0899 72.61 34.6299" stroke="#2D2D2D" strokeWidth="1.5" strokeMiterlimit="10" strokeLinecap="round" strokeLinejoin="round"/>
<path d="M22.5 13.5C24.78 12.17 29.33 9.92996 35.5 9.49996C38.28 9.30996 43.1 9.35996 48.5 11.5C55.65 14.33 59.78 19.2 61.5 21.5" stroke="#2D2D2D" strokeWidth="1.5" strokeMiterlimit="10" strokeLinecap="round" strokeLinejoin="round"/>
<path d="M13.5 30.5C14.16 28.31 16.09 23.02 21.31 18.95C26.1 15.22 31.09 14.51 33.57 14.2C37.3 13.72 40.43 14.1 42.49 14.51" stroke="#2D2D2D" strokeWidth="1.5" strokeMiterlimit="10" strokeLinecap="round" strokeLinejoin="round"/>
<path d="M16.4999 40.5C16.4199 38.37 16.5499 33.51 19.4999 28.5C23.7499 21.29 30.7799 19.01 32.4999 18.5" stroke="#2D2D2D" strokeWidth="1.5" strokeMiterlimit="10" strokeLinecap="round" strokeLinejoin="round"/>
<path d="M25.6001 50.51C24.7801 49.25 20.7901 42.84 22.8401 35.23C23.6701 32.14 25.2201 29.9 26.4001 28.5" stroke="#2D2D2D" strokeWidth="1.5" strokeMiterlimit="10" strokeLinecap="round" strokeLinejoin="round"/>
<path d="M33.4101 72.33C31.1301 71.87 18.9001 69.19 11.5001 57.5C6.15009 49.05 6.30009 40.59 6.50009 37.5" stroke="#2D2D2D" strokeWidth="1.5" strokeMiterlimit="10" strokeLinecap="round" strokeLinejoin="round"/>
<path d="M51.5 67.5C48.83 68.49 43.75 69.97 37.37 69.28C29.36 68.41 24.01 64.63 22.5 63.5C17.33 59.63 14.7 55 13.5 52.5" stroke="#2D2D2D" strokeWidth="1.5" strokeMiterlimit="10" strokeLinecap="round" strokeLinejoin="round"/>
<path d="M64.1301 53.34C63.2201 54.76 61.7501 56.75 59.5201 58.7C58.2901 59.78 53.8701 63.44 46.9301 64.66C40.9601 65.71 36.1401 64.43 33.8201 63.64" stroke="#2D2D2D" strokeWidth="1.5" strokeMiterlimit="10" strokeLinecap="round" strokeLinejoin="round"/>
<path d="M62.5 41.5C62.54 42.79 62.6 49.27 57.59 54.65C52.03 60.62 44.63 60.53 43.5 60.5" stroke="#2D2D2D" strokeWidth="1.5" strokeMiterlimit="10" strokeLinecap="round" strokeLinejoin="round"/>
<path d="M55.9901 31.17C56.5601 32.56 59.2801 39.61 55.8401 46.69C54.4401 49.57 52.5001 51.4801 51.0801 52.6301" stroke="#2D2D2D" strokeWidth="1.5" strokeMiterlimit="10" strokeLinecap="round" strokeLinejoin="round"/>
</svg>
