<svg width="37" height="31" viewBox="0 0 37 31" fill="none" xmlns="http://www.w3.org/2000/svg">
<path d="M27.56 26.8902H9.36683C9.15427 26.8908 8.94388 26.8546 8.74896 26.784C8.55404 26.7133 8.37883 26.6097 8.23442 26.4797C8.09 26.3498 7.97951 26.1962 7.90995 26.0289C7.84038 25.8615 7.81324 25.6839 7.83024 25.5073L9.13634 11.422C9.16731 11.1004 9.34277 10.8004 9.62765 10.582C9.91253 10.3636 10.2858 10.2429 10.6729 10.2439H26.2539C26.641 10.2429 27.0143 10.3636 27.2992 10.582C27.5841 10.8004 27.7595 11.1004 27.7905 11.422L29.0966 25.5073C29.1136 25.6839 29.0865 25.8615 29.0169 26.0289C28.9473 26.1962 28.8368 26.3498 28.6924 26.4797C28.548 26.6097 28.3728 26.7133 28.1779 26.784C27.983 26.8546 27.7726 26.8908 27.56 26.8902V26.8902Z" stroke="#141414" strokeWidth="1.02439" strokeLinecap="round" strokeLinejoin="round"/>
<path d="M13.8538 14.0854V7.68293C13.8538 6.66411 14.3394 5.68701 15.2039 4.9666C16.0684 4.24619 17.2409 3.84146 18.4635 3.84146V3.84146C19.6861 3.84146 20.8586 4.24619 21.7231 4.9666C22.5876 5.68701 23.0733 6.66411 23.0733 7.68293V14.0854" stroke="#141414" strokeWidth="1.02439" strokeLinecap="round" strokeLinejoin="round"/>
</svg>
