<svg width="32" height="31" viewBox="0 0 32 31" fill="none" xmlns="http://www.w3.org/2000/svg">
<path d="M25.9858 6.96588C27.1595 8.14423 27.8185 9.73963 27.8185 11.4028C27.8185 13.0659 27.1595 14.6613 25.9858 15.8397L16.2925 25.6098L6.59925 15.8397C5.72755 14.9621 5.13408 13.8469 4.89314 12.6336C4.6522 11.4204 4.77448 10.163 5.24469 9.01892C5.7149 7.87484 6.51213 6.89488 7.5366 6.2017C8.56107 5.50853 9.76724 5.13295 11.0041 5.12198C12.6581 5.13201 14.2411 5.7947 15.409 6.96588C15.7496 7.30294 16.0465 7.68152 16.2925 8.09271C16.5386 7.68152 16.8355 7.30294 17.1761 6.96588C17.7515 6.38205 18.4373 5.91843 19.1935 5.60199C19.9497 5.28554 20.7612 5.12258 21.581 5.12258C22.4007 5.12258 23.2123 5.28554 23.9685 5.60199C24.7247 5.91843 25.4104 6.38205 25.9858 6.96588V6.96588Z" stroke="#141414" strokeWidth="1.02439" strokeLinecap="round" strokeLinejoin="round"/>
</svg>
