<svg width="32" height="31" viewBox="0 0 32 31" fill="none" xmlns="http://www.w3.org/2000/svg">
<path d="M27.7194 26.8902L21.0609 20.2317M23.878 13.4451C23.878 15.3445 23.3147 17.2013 22.2595 18.7806C21.2042 20.3599 19.7043 21.5909 17.9495 22.3177C16.1946 23.0446 14.2637 23.2348 12.4007 22.8643C10.5378 22.4937 8.8266 21.579 7.48351 20.2359C6.14041 18.8928 5.22575 17.1816 4.85519 15.3187C4.48463 13.4558 4.67482 11.5248 5.40169 9.76996C6.12857 8.01512 7.3595 6.51523 8.93881 5.45997C10.5181 4.40471 12.3749 3.84146 14.2743 3.84146C16.8214 3.84146 19.2641 4.85327 21.0651 6.65431C22.8662 8.45534 23.878 10.8981 23.878 13.4451Z" stroke="#141414" strokeWidth="1.02439" strokeLinecap="round" strokeLinejoin="round"/>
</svg>
