<svg width="31" height="31" viewBox="0 0 31 31" fill="none" xmlns="http://www.w3.org/2000/svg">
<path d="M20.7562 8.96341C20.7562 9.97644 20.4558 10.9667 19.893 11.809C19.3302 12.6513 18.5303 13.3078 17.5944 13.6955C16.6585 14.0831 15.6286 14.1846 14.635 13.9869C13.6415 13.7893 12.7288 13.3015 12.0125 12.5852C11.2962 11.8689 10.8084 10.9562 10.6107 9.96266C10.4131 8.96909 10.5145 7.93924 10.9022 7.00333C11.2899 6.06741 11.9464 5.26747 12.7887 4.70467C13.631 4.14186 14.6213 3.84146 15.6343 3.84146C16.9927 3.84146 18.2955 4.38109 19.2561 5.34165C20.2166 6.3022 20.7562 7.60499 20.7562 8.96341ZM20.7562 19.2073H10.5123C9.15391 19.2073 7.85112 19.747 6.89057 20.7075C5.93001 21.6681 5.39038 22.9708 5.39038 24.3293V24.3293C5.39038 25.0085 5.6602 25.6599 6.14047 26.1402C6.62075 26.6204 7.27214 26.8902 7.95136 26.8902H23.3172C23.9964 26.8902 24.6478 26.6204 25.1281 26.1402C25.6084 25.6599 25.8782 25.0085 25.8782 24.3293C25.8782 22.9708 25.3386 21.6681 24.378 20.7075C23.4175 19.747 22.1147 19.2073 20.7562 19.2073V19.2073Z" stroke="#141414" strokeWidth="1.02439" strokeLinecap="round" strokeLinejoin="round"/>
</svg>
